{"title":"Ride Along 2014 BRRip 480p x264 AAC-VYTO [P2PDL]","uid":9945290,"size":347698407,"categoryP":"video","categoryS":"movies","magnet":"?xt=urn:btih:621ecb3b0e46e21b49c629c6e1e50cd73803815a&amp;dn=Ride+Along+2014+BRRip+480p+x264+AAC-VYTO+%5BP2PDL%5D&amp;tr=udp%3A%2F%2Ftracker.openbittorrent.com%3A80&amp;tr=udp%3A%2F%2Fopen.demonii.com%3A1337&amp;tr=udp%3A%2F%2Ftracker.coppersurfer.tk%3A6969&amp;tr=udp%3A%2F%2Fexodus.desync.com%3A6969","seeders":2,"leechers":0,"uploader":"ValidusVyto","files":-1,"time":1397302011,"description":"____    ____ ____    ____ .___________.  ______   \n     /   /      /   / |           | /  __    \n    /   /      /   /  `---|  |----`|  |  |  | \n        /     _    _/       |  |     |  |  |  | \n       /        |  |         |  |     |  `--'  | \n    __/         |__|         |__|      ______/  \n                                                  \nPresenting Small Encodes with quality for years!\n                                                                                                   \n                                                                              \n\n\nRide.Along.2014.BRRIip.480p.x264.AAC-VYTO\n\n\nGenre: Action | Comedy &lt;a href=&quot;\nhttp://www.imdb.com/title/tt1408253/&quot; rel=&quot;nofollow&quot; target=&quot;_NEW&quot;&gt;\nhttp://www.imdb.com/title/tt1408253/&lt;/a&gt;\n\n\nFormat                         : MPEG-4\nFile size                      : 326 MiB\nDuration                       : 1h 39mn\nOverall bit rate               : 458 Kbps\n\nVideo\nFormat                         : AVC\nFormat profile                 : &lt;a class=&quot;__cf_email__&quot; href=&quot;/cdn-cgi/l/email-protection&quot; data-cfemail=&quot;96defff1fed6daa2b8a7&quot;&gt;[email&amp;#160;protected]&lt;/a&gt;&lt;script cf-hash='f9e31' type=&quot;text/javascript&quot;&gt;\n/* &lt;![CDATA[ */!function(){try{var t=&quot;currentScript&quot;in document?document.currentScript:function(){for(var t=document.getElementsByTagName(&quot;script&quot;),e=t.length;e--;)if(t[e].getAttribute(&quot;cf-hash&quot;))return t[e]}();if(t&amp;&amp;t.previousSibling){var e,r,n,i,c=t.previousSibling,a=c.getAttribute(&quot;data-cfemail&quot;);if(a){for(e=&quot;&quot;,r=parseInt(a.substr(0,2),16),n=2;a.length-n;n+=2)i=parseInt(a.substr(n,2),16)^r,e+=String.fromCharCode(i);e=document.createTextNode(e),c.parentNode.replaceChild(e,c)}}}catch(u){}}();/* ]]&gt; */&lt;/script&gt;\nDuration                       : 1h 39mn\nBit rate                       : 415 Kbps\nWidth                          : 720 pixels\nHeight                         : 304 pixels\nDisplay aspect ratio           : 2.35:1\nFrame rate mode                : Constant\nFrame rate                     : 23.976 fps\nBit depth                      : 8 bits\nStream size                    : 296 MiB (91%)\nWriting library                : x264 core 142 r2409 d6b4e63\n\nAudio\nFormat                         : AAC\nBit rate mode                  : Variable\nBit rate                       : 39.9 Kbps\nChannel(s)                     : 2 channels\nChannel positions              : Front: L R\nSampling rate                  : 44.1 KHz \nStream size                    : 28.4 MiB (9%)\nLanguage                       : English\n\nSubtitle                       : Yes (English)\n\n &lt;a href=&quot;\nhttp://www.ultraimg.com/images/V8Qf.png&quot; rel=&quot;nofollow&quot; target=&quot;_NEW&quot;&gt;\nhttp://www.ultraimg.com/images/V8Qf.png&lt;/a&gt; &lt;a href=&quot;\nhttp://www.ultraimg.com/images/KaTfW.png&quot; rel=&quot;nofollow&quot; target=&quot;_NEW&quot;&gt;\nhttp://www.ultraimg.com/images/KaTfW.png&lt;/a&gt; &lt;a href=&quot;\nhttp://www.ultraimg.com/images/KhBUi.png&quot; rel=&quot;nofollow&quot; target=&quot;_NEW&quot;&gt;\nhttp://www.ultraimg.com/images/KhBUi.png&lt;/a&gt; &lt;a href=&quot;\nhttp://www.ultraimg.com/images/ok9I0.png&quot; rel=&quot;nofollow&quot; target=&quot;_NEW&quot;&gt;\nhttp://www.ultraimg.com/images/ok9I0.png&lt;/a&gt; &lt;a href=&quot;\nhttp://www.ultraimg.com/images/6NlhR.png&quot; rel=&quot;nofollow&quot; target=&quot;_NEW&quot;&gt;\nhttp://www.ultraimg.com/images/6NlhR.png&lt;/a&gt; &lt;a href=&quot;\nhttp://www.ultraimg.com/images/1lKO0.png&quot; rel=&quot;nofollow&quot; target=&quot;_NEW&quot;&gt;\nhttp://www.ultraimg.com/images/1lKO0.png&lt;/a&gt;\n\n\n\n----------------------------------------------------------------------------------------------------\n\n\nRecommend to you to use latest version of VLC player. Install K-Lite Codec Pack or shark007 codecs\nin case of any kind of problem in playback (For non-VLC Media Player users). Alternatively, install\nCore AVC codecs, the fastest decoder that there is coupled with Community Center Codec Pack and play\non Windows Media Player Classic. Check sample to be sure.\n\nEncoder Notes:Looking For Early Access To Anything You Can Provide DVDScr, R5, DVDR, BluRay, Direct\nAudio, Music Releases and Seedboxes. We require dedicated servers, so as to do more \nand fast releases of movies.","torrent":{"xt":"urn:btih:621ecb3b0e46e21b49c629c6e1e50cd73803815a","amp;dn":"Ride+Along+2014+BRRip+480p+x264+AAC-VYTO+%5BP2PDL%5D","amp;tr":["udp%3A%2F%2Ftracker.openbittorrent.com%3A80","udp%3A%2F%2Fopen.demonii.com%3A1337","udp%3A%2F%2Ftracker.coppersurfer.tk%3A6969","udp%3A%2F%2Fexodus.desync.com%3A6969"],"infoHash":"621ecb3b0e46e21b49c629c6e1e50cd73803815a","infoHashBuffer":{"type":"Buffer","data":[98,30,203,59,14,70,226,27,73,198,41,198,225,229,12,215,56,3,129,90]},"announce":[],"urlList":[]}}